<svg viewBox="0 0 1200 1400" xmlns="http://www.w3.org/2000/svg">
  <!-- Background -->
  <rect width="1200" height="1400" fill="#f8f9fa"/>
  
  <!-- Title -->
  <text x="600" y="30" text-anchor="middle" font-size="24" font-weight="bold" fill="#2c3e50">
    DiT with Text Embeddings Architecture
  </text>
  
  <!-- Input Image -->
  <rect x="50" y="80" width="120" height="60" fill="#1e3a5f" stroke="#152a42" stroke-width="2" rx="5"/>
  <text x="110" y="105" text-anchor="middle" font-size="12" fill="white" font-weight="bold">Input Image</text>
  <text x="110" y="120" text-anchor="middle" font-size="10" fill="white">[B, C, H, W]</text>
  
  <!-- Text Embeddings Input -->
  <rect x="250" y="80" width="120" height="60" fill="#1e3a5f" stroke="#152a42" stroke-width="2" rx="5"/>
  <text x="310" y="105" text-anchor="middle" font-size="12" fill="white" font-weight="bold">Text Embeddings</text>
  <text x="310" y="120" text-anchor="middle" font-size="10" fill="white">[B, 20, 4096]</text>
  
  <!-- Timestep Input -->
  <rect x="400" y="80" width="120" height="60" fill="#1e3a5f" stroke="#152a42" stroke-width="2" rx="5"/>
  <text x="460" y="105" text-anchor="middle" font-size="12" fill="white" font-weight="bold">Timestep</text>
  <text x="460" y="120" text-anchor="middle" font-size="10" fill="white">[B]</text>
  
  <!-- Extract Patches -->
  <rect x="50" y="180" width="120" height="50" fill="#1e3a5f" stroke="#152a42" stroke-width="2" rx="5"/>
  <text x="110" y="200" text-anchor="middle" font-size="12" fill="white" font-weight="bold">Extract Patches</text>
  <text x="110" y="215" text-anchor="middle" font-size="10" fill="white">Unfold</text>
  
  <!-- Text Projector -->
  <rect x="250" y="180" width="120" height="50" fill="#1e3a5f" stroke="#152a42" stroke-width="2" rx="5"/>
  <text x="310" y="200" text-anchor="middle" font-size="12" fill="white" font-weight="bold">Text Projector</text>
  <text x="310" y="215" text-anchor="middle" font-size="10" fill="white">4096 → 128</text>
  
  <!-- Time MLP -->
  <rect x="400" y="180" width="120" height="50" fill="#1e3a5f" stroke="#152a42" stroke-width="2" rx="5"/>
  <text x="460" y="200" text-anchor="middle" font-size="12" fill="white" font-weight="bold">Time MLP</text>
  <text x="460" y="215" text-anchor="middle" font-size="10" fill="white">Sinusoidal</text>
  
  <!-- Patch Embedding -->
  <rect x="50" y="280" width="120" height="50" fill="#1e3a5f" stroke="#152a42" stroke-width="2" rx="5"/>
  <text x="110" y="300" text-anchor="middle" font-size="12" fill="white" font-weight="bold">Patch Embed</text>
  <text x="110" y="315" text-anchor="middle" font-size="10" fill="white">Linear</text>
  
  <!-- Positional Embedding -->
  <rect x="200" y="280" width="120" height="50" fill="#1e3a5f" stroke="#152a42" stroke-width="2" rx="5"/>
  <text x="260" y="300" text-anchor="middle" font-size="12" fill="white" font-weight="bold">Pos Embed</text>
  <text x="260" y="315" text-anchor="middle" font-size="10" fill="white">+ Add</text>
  
  <!-- Transformer Blocks Container -->
  <rect x="550" y="360" width="300" height="500" fill="none" stroke="#34495e" stroke-width="3" stroke-dasharray="10,5" rx="10"/>
  <text x="700" y="380" text-anchor="middle" font-size="16" font-weight="bold" fill="#34495e">
    Transformer Blocks (×N)
  </text>
  
  <!-- Transformer Block 1 -->
  <g transform="translate(0, 0)">
    <!-- Layer Norm 1 -->
    <rect x="570" y="410" width="100" height="40" fill="#1e3a5f" stroke="#152a42" stroke-width="2" rx="5"/>
    <text x="620" y="425" text-anchor="middle" font-size="11" fill="white" font-weight="bold">LayerNorm</text>
    <text x="620" y="440" text-anchor="middle" font-size="9" fill="white">norm1</text>
    
    <!-- Self Attention -->
    <rect x="570" y="470" width="100" height="40" fill="#1e3a5f" stroke="#152a42" stroke-width="2" rx="5"/>
    <text x="620" y="485" text-anchor="middle" font-size="11" fill="white" font-weight="bold">Self-Attention</text>
    <text x="620" y="500" text-anchor="middle" font-size="9" fill="white">Multi-Head</text>
    
    <!-- Layer Norm 2 -->
    <rect x="570" y="530" width="100" height="40" fill="#1e3a5f" stroke="#152a42" stroke-width="2" rx="5"/>
    <text x="620" y="545" text-anchor="middle" font-size="11" fill="white" font-weight="bold">LayerNorm</text>
    <text x="620" y="560" text-anchor="middle" font-size="9" fill="white">norm2</text>
    
    <!-- Cross Attention -->
    <rect x="570" y="590" width="100" height="40" fill="#1e3a5f" stroke="#152a42" stroke-width="2" rx="5"/>
    <text x="620" y="605" text-anchor="middle" font-size="11" fill="white" font-weight="bold">Cross-Attention</text>
    <text x="620" y="620" text-anchor="middle" font-size="9" fill="white">Text Cond.</text>
    
    <!-- Conditional Norm -->
    <rect x="570" y="650" width="100" height="40" fill="#1e3a5f" stroke="#152a42" stroke-width="2" rx="5"/>
    <text x="620" y="665" text-anchor="middle" font-size="11" fill="white" font-weight="bold">Cond. Norm</text>
    <text x="620" y="680" text-anchor="middle" font-size="9" fill="white">Time Cond.</text>
    
    <!-- MLP -->
    <rect x="570" y="710" width="100" height="40" fill="#1e3a5f" stroke="#152a42" stroke-width="2" rx="5"/>
    <text x="620" y="725" text-anchor="middle" font-size="11" fill="white" font-weight="bold">MLP</text>
    <text x="620" y="740" text-anchor="middle" font-size="9" fill="white">4×Hidden</text>
    
    <!-- Residual Connections -->
    <path d="M 680 430 Q 720 430 720 490 Q 720 510 680 510" fill="none" stroke="#e67e22" stroke-width="3" marker-end="url(#arrowhead)"/>
    <path d="M 680 550 Q 720 550 720 610 Q 720 630 680 630" fill="none" stroke="#e67e22" stroke-width="3" marker-end="url(#arrowhead)"/>
    <path d="M 680 670 Q 720 670 720 730 Q 720 750 680 750" fill="none" stroke="#e67e22" stroke-width="3" marker-end="url(#arrowhead)"/>
    
    <!-- Text input to cross-attention -->
    <path d="M 310 230 Q 310 250 310 610 Q 310 610 570 610" fill="none" stroke="#e74c3c" stroke-width="2" marker-end="url(#arrowhead)"/>
    
    <!-- Time features to conditional norm -->
    <path d="M 460 230 Q 460 250 460 670 Q 460 670 570 670" fill="none" stroke="#9b59b6" stroke-width="2" marker-end="url(#arrowhead)"/>
  </g>
  
  <!-- Output Linear -->
  <rect x="570" y="920" width="100" height="40" fill="#1e3a5f" stroke="#152a42" stroke-width="2" rx="5"/>
  <text x="620" y="935" text-anchor="middle" font-size="11" fill="white" font-weight="bold">Output Linear</text>
  <text x="620" y="950" text-anchor="middle" font-size="9" fill="white">fc_out</text>
  
  <!-- Reconstruct Image -->
  <rect x="570" y="1000" width="100" height="40" fill="#1e3a5f" stroke="#152a42" stroke-width="2" rx="5"/>
  <text x="620" y="1015" text-anchor="middle" font-size="11" fill="white" font-weight="bold">Reconstruct</text>
  <text x="620" y="1030" text-anchor="middle" font-size="9" fill="white">Fold</text>
  
  <!-- Output -->
  <rect x="570" y="1080" width="100" height="50" fill="#1e3a5f" stroke="#152a42" stroke-width="2" rx="5"/>
  <text x="620" y="1100" text-anchor="middle" font-size="12" fill="white" font-weight="bold">Output</text>
  <text x="620" y="1115" text-anchor="middle" font-size="10" fill="white">[B, C, H, W]</text>
  
  <!-- Arrows -->
  <!-- Image path -->
  <path d="M 110 140 L 110 180" fill="none" stroke="#2c3e50" stroke-width="2" marker-end="url(#arrowhead)"/>
  <path d="M 110 230 L 110 280" fill="none" stroke="#2c3e50" stroke-width="2" marker-end="url(#arrowhead)"/>
  <path d="M 170 305 L 200 305" fill="none" stroke="#2c3e50" stroke-width="2" marker-end="url(#arrowhead)"/>
  <path d="M 260 330 Q 260 350 260 370 Q 260 390 570 390 Q 570 400 570 410" fill="none" stroke="#2c3e50" stroke-width="2" marker-end="url(#arrowhead)"/>
  
  <!-- Text path -->
  <path d="M 310 140 L 310 180" fill="none" stroke="#e74c3c" stroke-width="2" marker-end="url(#arrowhead)"/>
  
  <!-- Time path -->
  <path d="M 460 140 L 460 180" fill="none" stroke="#9b59b6" stroke-width="2" marker-end="url(#arrowhead)"/>
  
  <!-- Output path -->
  <path d="M 620 770 Q 620 790 620 800 Q 620 890 620 920" fill="none" stroke="#2c3e50" stroke-width="2" marker-end="url(#arrowhead)"/>
  <path d="M 620 960 L 620 1000" fill="none" stroke="#2c3e50" stroke-width="2" marker-end="url(#arrowhead)"/>
  <path d="M 620 1040 L 620 1080" fill="none" stroke="#2c3e50" stroke-width="2" marker-end="url(#arrowhead)"/>
  
  <!-- Data Flow Labels -->
  <text x="180" y="255" font-size="10" fill="#7f8c8d">[B, L, P²C]</text>
  <text x="330" y="255" font-size="10" fill="#7f8c8d">[B, 20, 128]</text>
  <text x="480" y="255" font-size="10" fill="#7f8c8d">[B, 128]</text>
  <text x="180" y="355" font-size="10" fill="#7f8c8d">[B, L, 128]</text>
  

  
  <!-- Key Features Box -->
  <rect x="50" y="1200" width="500" height="150" fill="#ecf0f1" stroke="#bdc3c7" stroke-width="2" rx="10"/>
  <text x="300" y="1225" text-anchor="middle" font-size="14" font-weight="bold" fill="#2c3e50">Key Features</text>
  
  <text x="70" y="1250" font-size="12" fill="#2c3e50">• Cross-attention for text conditioning</text>
  <text x="70" y="1270" font-size="12" fill="#2c3e50">• Self-attention for spatial relationships</text>
  <text x="70" y="1290" font-size="12" fill="#2c3e50">• Time-conditional normalization</text>
  <text x="70" y="1310" font-size="12" fill="#2c3e50">• Patch-based image processing</text>
  <text x="70" y="1330" font-size="12" fill="#2c3e50">• Residual connections throughout</text>
  
  <!-- Arrow marker definition -->
  <defs>
    <marker id="arrowhead" markerWidth="10" markerHeight="7" refX="9" refY="3.5" orient="auto">
      <polygon points="0 0, 10 3.5, 0 7" fill="#2c3e50"/>
    </marker>
  </defs>
</svg>